ply
format ascii 1.0
comment VCGLIB generated
element vertex 167
property float x
property float y
property float z
element face 168
property list uchar int vertex_indices
property uchar red
property uchar green
property uchar blue
property uchar alpha
end_header
79.22925 54.5184 0 
65.26948 6.224789 0 
85.91337 52.02535 0 
74.93475 3.192291 0 
92.88426 50.50893 0 
54.5184 79.22925 0 
12.56534 51.46981 0 
57.93732 72.96796 0 
17.92366 42.87318 0 
62.21252 67.25696 0 
24.12419 34.86276 0 
67.25696 62.21252 0 
84.85722 1.153171 0 
94.93508 0.1283512 0 
100 50 0 
105.0649 0.1283512 0 
107.1157 50.50893 0 
115.1428 1.153171 0 
114.0866 52.02535 0 
147.9747 85.91337 0 
197.953 79.87015 0 
149.4911 92.88426 0 
199.4869 89.88317 0 
150 100 0 
200 100 0 
149.4911 107.1157 0 
127.032 57.93732 0 
161.2106 20.92243 0 
132.743 62.21252 0 
168.8967 27.52072 0 
137.7875 67.25696 0 
175.8758 34.86276 0 
142.0627 72.96796 0 
31.10331 27.52072 0 
38.7894 20.92243 0 
72.96796 57.93732 0 
47.1036 15.13558 0 
55.96059 10.21954 0 
50.50893 92.88426 0 
2.04701 79.87015 0 
52.02535 85.91337 0 
4.586078 70.06369 0 
8.10422 60.56442 0 
199.4869 110.1168 0 
197.953 120.1299 0 
147.9747 114.0866 0 
195.4139 129.9363 0 
145.4816 120.7708 0 
52.02535 114.0866 0 
2.04701 120.1299 0 
50.50893 107.1157 0 
0.5130693 110.1168 0 
50 100 0 
0 100 0 
0.5130693 89.88317 0 
57.93732 127.032 0 
12.56534 148.5302 0 
54.5184 120.7708 0 
8.10422 139.4356 0 
4.586078 129.9363 0 
72.96796 142.0627 0 
38.7894 179.0776 0 
67.25696 137.7875 0 
31.10331 172.4793 0 
62.21252 132.743 0 
24.12419 165.1372 0 
17.92366 157.1268 0 
182.0763 42.87318 0 
187.4347 51.46981 0 
145.4816 79.22925 0 
191.8958 60.56442 0 
195.4139 70.06369 0 
85.91337 147.9747 0 
65.26948 193.7752 0 
79.22925 145.4816 0 
55.96059 189.7805 0 
47.1036 184.8644 0 
107.1157 149.4911 0 
105.0649 199.8717 0 
100 150 0 
94.93508 199.8717 0 
92.88426 149.4911 0 
84.85722 198.8468 0 
74.93475 196.8077 0 
120.7708 145.4816 0 
134.7305 193.7752 0 
114.0866 147.9747 0 
125.0653 196.8077 0 
115.1428 198.8468 0 
125.0653 3.192291 0 
134.7305 6.224789 0 
120.7708 54.5184 0 
144.0394 10.21954 0 
152.8964 15.13558 0 
191.8958 139.4356 0 
187.4347 148.5302 0 
142.0627 127.032 0 
182.0763 157.1268 0 
137.7875 132.743 0 
175.8758 165.1372 0 
132.743 137.7875 0 
168.8967 172.4793 0 
161.2106 179.0776 0 
127.032 142.0627 0 
152.8964 184.8644 0 
144.0394 189.7805 0 
50.25654 105.0584 0 
100 100 0 
50.25654 94.94159 0 
54.05211 80.28221 0 
52.29304 85.03185 0 
51.02351 89.93508 0 
62.0621 67.43138 0 
58.96183 71.43659 0 
56.28267 75.7349 0 
73.5518 57.56779 0 
69.3947 60.46122 0 
65.55166 63.76036 0 
87.46738 51.59615 0 
82.63474 53.1124 0 
77.98029 55.10977 0 
102.5325 50.06418 0 
97.46754 50.06418 0 
92.42861 50.57659 0 
117.3653 53.1124 0 
112.5326 51.59615 0 
107.5714 50.57659 0 
130.6053 60.46122 0 
126.4482 57.56779 0 
122.0197 55.10977 0 
141.0382 71.43659 0 
137.9379 67.43138 0 
134.4483 63.76036 0 
147.707 85.03185 0 
145.9479 80.28221 0 
143.7173 75.7349 0 
149.7435 94.94159 0 
148.9765 89.93508 0 
147.707 114.9682 0 
148.9765 110.0649 0 
149.7435 105.0584 0 
141.0382 128.5634 0 
143.7173 124.2651 0 
145.9479 119.7178 0 
130.6053 139.5388 0 
134.4483 136.2396 0 
137.9379 132.5686 0 
117.3653 146.8876 0 
122.0197 144.8902 0 
126.4482 142.4322 0 
102.5325 149.9358 0 
107.5714 149.4234 0 
112.5326 148.4039 0 
87.46738 148.4039 0 
92.42861 149.4234 0 
97.46754 149.9358 0 
73.5518 142.4322 0 
77.98029 144.8902 0 
82.63474 146.8876 0 
62.0621 132.5686 0 
65.55166 136.2396 0 
69.3947 139.5388 0 
54.05211 119.7178 0 
56.28267 124.2651 0 
58.96183 128.5634 0 
51.02351 110.0649 0 
52.29304 114.9682 0 
3 0 1 2 63 128 0 0 
3 2 1 3 63 128 0 0 
3 2 3 4 63 128 0 0 
3 5 6 7 63 128 0 0 
3 7 6 8 63 128 0 0 
3 7 8 9 63 128 0 0 
3 9 8 10 63 128 0 0 
3 9 10 11 63 128 0 0 
3 3 12 4 63 128 0 0 
3 4 12 13 63 128 0 0 
3 4 13 14 63 128 0 0 
3 14 13 15 63 128 0 0 
3 14 15 16 63 128 0 0 
3 16 15 17 63 128 0 0 
3 16 17 18 63 128 0 0 
3 19 20 21 63 128 0 0 
3 21 20 22 63 128 0 0 
3 21 22 23 63 128 0 0 
3 23 22 24 63 128 0 0 
3 23 24 25 63 128 0 0 
3 26 27 28 63 128 0 0 
3 28 27 29 63 128 0 0 
3 28 29 30 63 128 0 0 
3 30 29 31 63 128 0 0 
3 30 31 32 63 128 0 0 
3 10 33 11 63 128 0 0 
3 11 33 34 63 128 0 0 
3 11 34 35 63 128 0 0 
3 35 34 36 63 128 0 0 
3 35 36 0 63 128 0 0 
3 0 36 37 63 128 0 0 
3 0 37 1 63 128 0 0 
3 38 39 40 63 128 0 0 
3 40 39 41 63 128 0 0 
3 40 41 5 63 128 0 0 
3 5 41 42 63 128 0 0 
3 5 42 6 63 128 0 0 
3 24 43 25 63 128 0 0 
3 25 43 44 63 128 0 0 
3 25 44 45 63 128 0 0 
3 45 44 46 63 128 0 0 
3 45 46 47 63 128 0 0 
3 48 49 50 63 128 0 0 
3 50 49 51 63 128 0 0 
3 50 51 52 63 128 0 0 
3 52 51 53 63 128 0 0 
3 52 53 38 63 128 0 0 
3 38 53 54 63 128 0 0 
3 38 54 39 63 128 0 0 
3 55 56 57 63 128 0 0 
3 57 56 58 63 128 0 0 
3 57 58 48 63 128 0 0 
3 48 58 59 63 128 0 0 
3 48 59 49 63 128 0 0 
3 60 61 62 63 128 0 0 
3 62 61 63 63 128 0 0 
3 62 63 64 63 128 0 0 
3 64 63 65 63 128 0 0 
3 64 65 55 63 128 0 0 
3 55 65 66 63 128 0 0 
3 55 66 56 63 128 0 0 
3 31 67 32 63 128 0 0 
3 32 67 68 63 128 0 0 
3 32 68 69 63 128 0 0 
3 69 68 70 63 128 0 0 
3 69 70 19 63 128 0 0 
3 19 70 71 63 128 0 0 
3 19 71 20 63 128 0 0 
3 72 73 74 63 128 0 0 
3 74 73 75 63 128 0 0 
3 74 75 60 63 128 0 0 
3 60 75 76 63 128 0 0 
3 60 76 61 63 128 0 0 
3 77 78 79 63 128 0 0 
3 79 78 80 63 128 0 0 
3 79 80 81 63 128 0 0 
3 81 80 82 63 128 0 0 
3 81 82 72 63 128 0 0 
3 72 82 83 63 128 0 0 
3 72 83 73 63 128 0 0 
3 84 85 86 63 128 0 0 
3 86 85 87 63 128 0 0 
3 86 87 77 63 128 0 0 
3 77 87 88 63 128 0 0 
3 77 88 78 63 128 0 0 
3 17 89 18 63 128 0 0 
3 18 89 90 63 128 0 0 
3 18 90 91 63 128 0 0 
3 91 90 92 63 128 0 0 
3 91 92 26 63 128 0 0 
3 26 92 93 63 128 0 0 
3 26 93 27 63 128 0 0 
3 46 94 47 63 128 0 0 
3 47 94 95 63 128 0 0 
3 47 95 96 63 128 0 0 
3 96 95 97 63 128 0 0 
3 96 97 98 63 128 0 0 
3 98 97 99 63 128 0 0 
3 98 99 100 63 128 0 0 
3 99 101 100 63 128 0 0 
3 100 101 102 63 128 0 0 
3 100 102 103 63 128 0 0 
3 103 102 104 63 128 0 0 
3 103 104 84 63 128 0 0 
3 84 104 105 63 128 0 0 
3 84 105 85 63 128 0 0 
3 52 106 107 62 153 153 154 
3 52 107 108 62 153 153 154 
3 109 110 107 62 153 153 154 
3 107 110 111 62 153 153 154 
3 107 111 108 62 153 153 154 
3 112 113 107 62 153 153 154 
3 107 113 114 62 153 153 154 
3 107 114 109 62 153 153 154 
3 115 116 107 62 153 153 154 
3 107 116 117 62 153 153 154 
3 107 117 112 62 153 153 154 
3 118 119 107 62 153 153 154 
3 107 119 120 62 153 153 154 
3 107 120 115 62 153 153 154 
3 121 122 107 62 153 153 154 
3 107 122 123 62 153 153 154 
3 107 123 118 62 153 153 154 
3 124 125 107 62 153 153 154 
3 107 125 126 62 153 153 154 
3 107 126 121 62 153 153 154 
3 127 128 107 62 153 153 154 
3 107 128 129 62 153 153 154 
3 107 129 124 62 153 153 154 
3 130 131 107 62 153 153 154 
3 107 131 132 62 153 153 154 
3 107 132 127 62 153 153 154 
3 133 134 107 62 153 153 154 
3 107 134 135 62 153 153 154 
3 107 135 130 62 153 153 154 
3 23 136 107 62 153 153 154 
3 107 136 137 62 153 153 154 
3 107 137 133 62 153 153 154 
3 138 139 107 62 153 153 154 
3 107 139 140 62 153 153 154 
3 107 140 23 62 153 153 154 
3 141 142 107 62 153 153 154 
3 107 142 143 62 153 153 154 
3 107 143 138 62 153 153 154 
3 144 145 107 62 153 153 154 
3 107 145 146 62 153 153 154 
3 107 146 141 62 153 153 154 
3 147 148 107 62 153 153 154 
3 107 148 149 62 153 153 154 
3 107 149 144 62 153 153 154 
3 150 151 107 62 153 153 154 
3 107 151 152 62 153 153 154 
3 107 152 147 62 153 153 154 
3 153 154 107 62 153 153 154 
3 107 154 155 62 153 153 154 
3 107 155 150 62 153 153 154 
3 156 157 107 62 153 153 154 
3 107 157 158 62 153 153 154 
3 107 158 153 62 153 153 154 
3 159 160 107 62 153 153 154 
3 107 160 161 62 153 153 154 
3 107 161 156 62 153 153 154 
3 162 163 107 62 153 153 154 
3 107 163 164 62 153 153 154 
3 107 164 159 62 153 153 154 
3 106 165 107 62 153 153 154 
3 107 165 166 62 153 153 154 
3 107 166 162 62 153 153 154 
